<mxfile host="drawio-plugin" modified="2021-12-23T13:27:14.253Z" agent="5.0 (X11; Linux x86_64) AppleWebKit/537.36 (KHTML, like Gecko) Chrome/89.0.4389.114 Safari/537.36" etag="5wVnymvn-GyLhRttfMrb" version="14.7.4" type="embed"><diagram id="23iRSUPoRavnBvh4doch" name="Page-1"><mxGraphModel dx="968" dy="625" grid="1" gridSize="10" guides="1" tooltips="1" connect="1" arrows="1" fold="1" page="1" pageScale="1" pageWidth="827" pageHeight="1169" math="0" shadow="0"><root><mxCell id="0"/><mxCell id="1" parent="0"/><mxCell id="2" value="utilisateur" style="swimlane;fontStyle=1;align=center;verticalAlign=middle;childLayout=stackLayout;horizontal=1;startSize=29;horizontalStack=0;resizeParent=1;resizeParentMax=0;resizeLast=0;collapsible=0;marginBottom=0;html=1;" parent="1" vertex="1"><mxGeometry x="50" y="30" width="130" height="189" as="geometry"/></mxCell><mxCell id="13" value="id : integrer" style="text;html=1;align=center;verticalAlign=middle;resizable=0;points=[];autosize=1;strokeColor=none;" parent="2" vertex="1"><mxGeometry y="29" width="130" height="20" as="geometry"/></mxCell><mxCell id="14" value="nom : string" style="text;html=1;align=center;verticalAlign=middle;resizable=0;points=[];autosize=1;strokeColor=none;" parent="2" vertex="1"><mxGeometry y="49" width="130" height="20" as="geometry"/></mxCell><mxCell id="15" value="prenom : string" style="text;html=1;align=center;verticalAlign=middle;resizable=0;points=[];autosize=1;strokeColor=none;" parent="2" vertex="1"><mxGeometry y="69" width="130" height="20" as="geometry"/></mxCell><mxCell id="16" value="addresse : string" style="text;html=1;align=center;verticalAlign=middle;resizable=0;points=[];autosize=1;strokeColor=none;" parent="2" vertex="1"><mxGeometry y="89" width="130" height="20" as="geometry"/></mxCell><mxCell id="17" value="code postal : string" style="text;html=1;align=center;verticalAlign=middle;resizable=0;points=[];autosize=1;strokeColor=none;" parent="2" vertex="1"><mxGeometry y="109" width="130" height="20" as="geometry"/></mxCell><mxCell id="18" value="ville : string" style="text;html=1;align=center;verticalAlign=middle;resizable=0;points=[];autosize=1;strokeColor=none;" parent="2" vertex="1"><mxGeometry y="129" width="130" height="20" as="geometry"/></mxCell><mxCell id="19" value="telephone : string" style="text;html=1;align=center;verticalAlign=middle;resizable=0;points=[];autosize=1;strokeColor=none;" vertex="1" parent="2"><mxGeometry y="149" width="130" height="20" as="geometry"/></mxCell><mxCell id="20" value="cotisation : date" style="text;html=1;align=center;verticalAlign=middle;resizable=0;points=[];autosize=1;strokeColor=none;" vertex="1" parent="2"><mxGeometry y="169" width="130" height="20" as="geometry"/></mxCell><mxCell id="5" value="personnel" style="swimlane;fontStyle=1;align=center;verticalAlign=middle;childLayout=stackLayout;horizontal=1;startSize=29;horizontalStack=0;resizeParent=1;resizeParentMax=0;resizeLast=0;collapsible=0;marginBottom=0;html=1;" parent="1" vertex="1"><mxGeometry x="510" y="20" width="140" height="94" as="geometry"/></mxCell><mxCell id="6" value="id : integrer" style="text;html=1;strokeColor=none;fillColor=none;align=center;verticalAlign=middle;spacingLeft=4;spacingRight=4;overflow=hidden;rotatable=0;points=[[0,0.5],[1,0.5]];portConstraint=eastwest;" parent="5" vertex="1"><mxGeometry y="29" width="140" height="25" as="geometry"/></mxCell><mxCell id="21" value="nom : string" style="text;html=1;align=center;verticalAlign=middle;resizable=0;points=[];autosize=1;strokeColor=none;" vertex="1" parent="5"><mxGeometry y="54" width="140" height="20" as="geometry"/></mxCell><mxCell id="22" value="prenom : string" style="text;html=1;align=center;verticalAlign=middle;resizable=0;points=[];autosize=1;strokeColor=none;" vertex="1" parent="5"><mxGeometry y="74" width="140" height="20" as="geometry"/></mxCell><mxCell id="8" value="benevoles" style="swimlane;fontStyle=1;align=center;verticalAlign=middle;childLayout=stackLayout;horizontal=1;startSize=29;horizontalStack=0;resizeParent=1;resizeParentMax=0;resizeLast=0;collapsible=0;marginBottom=0;html=1;" parent="1" vertex="1"><mxGeometry x="510" y="270" width="140" height="79" as="geometry"/></mxCell><mxCell id="9" value="id : integrer" style="text;html=1;strokeColor=none;fillColor=none;align=center;verticalAlign=middle;spacingLeft=4;spacingRight=4;overflow=hidden;rotatable=0;points=[[0,0.5],[1,0.5]];portConstraint=eastwest;" parent="8" vertex="1"><mxGeometry y="29" width="140" height="25" as="geometry"/></mxCell><mxCell id="10" value="stereotype property 1" style="text;html=1;strokeColor=none;fillColor=none;align=left;verticalAlign=middle;spacingLeft=4;spacingRight=4;overflow=hidden;rotatable=0;points=[[0,0.5],[1,0.5]];portConstraint=eastwest;" parent="8" vertex="1"><mxGeometry y="54" width="140" height="25" as="geometry"/></mxCell></root></mxGraphModel></diagram></mxfile>